 <svg
      xmlns="http://www.w3.org/2000/svg"
      width="100"
      height="70"
      version="1"
      viewBox="0 0 75 52.5"
    >
      <defs>
        <clipPath id="1c0b35052e">
          <path d="M3.375 10.469h68.348v33.43H3.375zm0 0"></path>
        </clipPath>
      </defs>
      <g clipPath="url(#1c0b35052e)">
        <path
          fill="#fff"
          d="M54.09 10.477l-2.188 7.59-1.465 5.09-5.968 20.738h-8.317l-7.398-21.16-7.395 21.16h-8.316L3.375 10.477h8.941l5.079 20.867 6.914-20.867h8.894l6.863 20.867 2.106-8.64 2.973-12.227zm5.02 0h-3.5l-2.188 7.59h4.914c2.855 0 4.883 1.554 4.883 3.89 0 2.332-2.028 3.89-4.883 3.89h-6.379v-2.69l-5.969 20.738h5.969V33.437h7.152c7.305 0 12.621-4.718 12.621-11.48 0-6.762-5.316-11.48-12.62-11.48zm0 0"
        ></path>
      </g>
    </svg>
