<svg xmlns="http://www.w3.org/2000/svg" xmlns:xlink="http://www.w3.org/1999/xlink" width="100" zoomAndPan="magnify" viewBox="0 0 75 52.499999" height="70" preserveAspectRatio="xMidYMid meet" version="1.0"><defs><g/></defs><g fill="#cb6ce6" fill-opacity="1"><g transform="translate(0.353775, 32.951716)"><g><path d="M 5.921875 0.15625 C 4.929688 0.15625 4.054688 -0.0390625 3.296875 -0.4375 C 2.535156 -0.84375 1.945312 -1.398438 1.53125 -2.109375 C 1.113281 -2.828125 0.90625 -3.65625 0.90625 -4.59375 L 0.90625 -8.90625 C 0.90625 -9.84375 1.113281 -10.671875 1.53125 -11.390625 C 1.945312 -12.109375 2.535156 -12.664062 3.296875 -13.0625 C 4.054688 -13.457031 4.929688 -13.65625 5.921875 -13.65625 C 6.898438 -13.65625 7.765625 -13.460938 8.515625 -13.078125 C 9.265625 -12.691406 9.847656 -12.164062 10.265625 -11.5 C 10.679688 -10.84375 10.890625 -10.109375 10.890625 -9.296875 L 10.890625 -9.25 C 10.890625 -9.03125 10.78125 -8.921875 10.5625 -8.921875 L 8.5 -8.921875 C 8.394531 -8.921875 8.3125 -8.9375 8.25 -8.96875 C 8.195312 -9.007812 8.171875 -9.046875 8.171875 -9.078125 L 8.171875 -9.21875 C 8.171875 -9.8125 7.960938 -10.304688 7.546875 -10.703125 C 7.140625 -11.109375 6.597656 -11.3125 5.921875 -11.3125 C 5.222656 -11.3125 4.664062 -11.097656 4.25 -10.671875 C 3.832031 -10.242188 3.625 -9.679688 3.625 -8.984375 L 3.625 -4.515625 C 3.625 -3.816406 3.847656 -3.25 4.296875 -2.8125 C 4.742188 -2.382812 5.316406 -2.171875 6.015625 -2.171875 C 6.679688 -2.171875 7.210938 -2.347656 7.609375 -2.703125 C 8.015625 -3.054688 8.21875 -3.550781 8.21875 -4.1875 L 8.21875 -5.03125 C 8.21875 -5.101562 8.175781 -5.140625 8.09375 -5.140625 L 6.046875 -5.140625 C 5.828125 -5.140625 5.71875 -5.25 5.71875 -5.46875 L 5.71875 -7.0625 C 5.71875 -7.28125 5.828125 -7.390625 6.046875 -7.390625 L 10.5625 -7.390625 C 10.78125 -7.390625 10.890625 -7.28125 10.890625 -7.0625 L 10.890625 -4.609375 C 10.890625 -3.628906 10.679688 -2.78125 10.265625 -2.0625 C 9.859375 -1.34375 9.28125 -0.789062 8.53125 -0.40625 C 7.78125 -0.03125 6.910156 0.15625 5.921875 0.15625 Z M 5.921875 0.15625 "/></g></g></g><g fill="#cb6ce6" fill-opacity="1"><g transform="translate(12.057442, 32.951716)"><g><path d="M 6.75 -13.515625 C 7.59375 -13.515625 8.335938 -13.335938 8.984375 -12.984375 C 9.628906 -12.640625 10.128906 -12.148438 10.484375 -11.515625 C 10.835938 -10.878906 11.015625 -10.148438 11.015625 -9.328125 C 11.015625 -8.523438 10.828125 -7.8125 10.453125 -7.1875 C 10.085938 -6.570312 9.570312 -6.09375 8.90625 -5.75 C 8.25 -5.414062 7.488281 -5.25 6.625 -5.25 L 3.921875 -5.25 C 3.835938 -5.25 3.796875 -5.207031 3.796875 -5.125 L 3.796875 -0.328125 C 3.796875 -0.109375 3.6875 0 3.46875 0 L 1.40625 0 C 1.1875 0 1.078125 -0.109375 1.078125 -0.328125 L 1.078125 -13.1875 C 1.078125 -13.40625 1.1875 -13.515625 1.40625 -13.515625 Z M 6.34375 -7.421875 C 6.9375 -7.421875 7.410156 -7.585938 7.765625 -7.921875 C 8.128906 -8.265625 8.3125 -8.71875 8.3125 -9.28125 C 8.3125 -9.84375 8.128906 -10.296875 7.765625 -10.640625 C 7.410156 -10.984375 6.9375 -11.15625 6.34375 -11.15625 L 3.921875 -11.15625 C 3.835938 -11.15625 3.796875 -11.117188 3.796875 -11.046875 L 3.796875 -7.53125 C 3.796875 -7.457031 3.835938 -7.421875 3.921875 -7.421875 Z M 6.34375 -7.421875 "/></g></g></g><g fill="#cb6ce6" fill-opacity="1"><g transform="translate(23.568294, 32.951716)"><g><path d="M 10.390625 -13.5 C 10.609375 -13.5 10.71875 -13.390625 10.71875 -13.171875 L 10.71875 -11.46875 C 10.71875 -11.25 10.609375 -11.140625 10.390625 -11.140625 L 7.0625 -11.140625 C 6.976562 -11.140625 6.9375 -11.101562 6.9375 -11.03125 L 6.9375 -0.328125 C 6.9375 -0.109375 6.828125 0 6.609375 0 L 4.546875 0 C 4.328125 0 4.21875 -0.109375 4.21875 -0.328125 L 4.21875 -11.03125 C 4.21875 -11.101562 4.179688 -11.140625 4.109375 -11.140625 L 0.875 -11.140625 C 0.65625 -11.140625 0.546875 -11.25 0.546875 -11.46875 L 0.546875 -13.171875 C 0.546875 -13.390625 0.65625 -13.5 0.875 -13.5 Z M 10.390625 -13.5 "/></g></g></g><g fill="#cb6ce6" fill-opacity="1"><g transform="translate(34.847775, 32.951716)"><g/></g></g><g fill="#cb6ce6" fill-opacity="1"><g transform="translate(38.704009, 32.951716)"><g><path d="M 1.5 0 C 1.28125 0 1.171875 -0.109375 1.171875 -0.328125 L 1.171875 -13.171875 C 1.171875 -13.390625 1.28125 -13.5 1.5 -13.5 L 3.5625 -13.5 C 3.78125 -13.5 3.890625 -13.390625 3.890625 -13.171875 L 3.890625 -2.453125 C 3.890625 -2.367188 3.929688 -2.328125 4.015625 -2.328125 L 10.203125 -2.328125 C 10.421875 -2.328125 10.53125 -2.21875 10.53125 -2 L 10.53125 -0.328125 C 10.53125 -0.109375 10.421875 0 10.203125 0 Z M 1.5 0 "/></g></g></g><g fill="#cb6ce6" fill-opacity="1"><g transform="translate(49.732837, 32.951716)"><g><path d="M 9.859375 0 C 9.671875 0 9.546875 -0.0859375 9.484375 -0.265625 L 8.953125 -2.0625 C 8.929688 -2.125 8.890625 -2.15625 8.828125 -2.15625 L 4.109375 -2.15625 C 4.046875 -2.15625 4.003906 -2.125 3.984375 -2.0625 L 3.453125 -0.265625 C 3.390625 -0.0859375 3.265625 0 3.078125 0 L 0.84375 0 C 0.726562 0 0.644531 -0.0351562 0.59375 -0.109375 C 0.539062 -0.179688 0.535156 -0.265625 0.578125 -0.359375 L 4.6875 -13.234375 C 4.75 -13.410156 4.867188 -13.5 5.046875 -13.5 L 7.890625 -13.5 C 8.066406 -13.5 8.1875 -13.410156 8.25 -13.234375 L 12.359375 -0.359375 C 12.367188 -0.335938 12.375 -0.300781 12.375 -0.25 C 12.375 -0.175781 12.347656 -0.113281 12.296875 -0.0625 C 12.242188 -0.0195312 12.175781 0 12.09375 0 Z M 4.671875 -4.390625 C 4.648438 -4.304688 4.679688 -4.265625 4.765625 -4.265625 L 8.171875 -4.265625 C 8.253906 -4.265625 8.285156 -4.304688 8.265625 -4.390625 L 6.53125 -10.28125 C 6.519531 -10.332031 6.5 -10.359375 6.46875 -10.359375 C 6.4375 -10.359375 6.40625 -10.332031 6.375 -10.28125 Z M 4.671875 -4.390625 "/></g></g></g><g fill="#cb6ce6" fill-opacity="1"><g transform="translate(62.670499, 32.951716)"><g><path d="M 9.203125 -7.0625 C 9.160156 -7.039062 9.140625 -7.015625 9.140625 -6.984375 C 9.140625 -6.953125 9.160156 -6.925781 9.203125 -6.90625 C 10.410156 -6.300781 11.015625 -5.257812 11.015625 -3.78125 C 11.015625 -2.53125 10.585938 -1.585938 9.734375 -0.953125 C 8.890625 -0.316406 7.78125 0 6.40625 0 L 1.5 0 C 1.28125 0 1.171875 -0.109375 1.171875 -0.328125 L 1.171875 -13.171875 C 1.171875 -13.390625 1.28125 -13.5 1.5 -13.5 L 6.25 -13.5 C 9.289062 -13.5 10.8125 -12.265625 10.8125 -9.796875 C 10.8125 -8.492188 10.273438 -7.582031 9.203125 -7.0625 Z M 4.015625 -11.15625 C 3.929688 -11.15625 3.890625 -11.117188 3.890625 -11.046875 L 3.890625 -8.078125 C 3.890625 -8.003906 3.929688 -7.96875 4.015625 -7.96875 L 6.25 -7.96875 C 6.851562 -7.96875 7.320312 -8.109375 7.65625 -8.390625 C 7.988281 -8.671875 8.15625 -9.054688 8.15625 -9.546875 C 8.15625 -10.046875 7.988281 -10.4375 7.65625 -10.71875 C 7.320312 -11.007812 6.851562 -11.15625 6.25 -11.15625 Z M 6.40625 -2.359375 C 6.988281 -2.359375 7.445312 -2.507812 7.78125 -2.8125 C 8.125 -3.113281 8.296875 -3.523438 8.296875 -4.046875 C 8.296875 -4.578125 8.125 -4.992188 7.78125 -5.296875 C 7.445312 -5.597656 6.976562 -5.75 6.375 -5.75 L 4.015625 -5.75 C 3.929688 -5.75 3.890625 -5.707031 3.890625 -5.625 L 3.890625 -2.46875 C 3.890625 -2.394531 3.929688 -2.359375 4.015625 -2.359375 Z M 6.40625 -2.359375 "/></g></g></g></svg>