<svg xmlns="http://www.w3.org/2000/svg" xmlns:xlink="http://www.w3.org/1999/xlink" width="500" zoomAndPan="magnify" viewBox="0 0 375 374.999991" height="500" preserveAspectRatio="xMidYMid meet" version="1.0">
  <defs>
    <clipPath id="f8e1ed320a">
      <path d="M 11.992188 76 L 362.992188 76 L 362.992188 298 L 11.992188 298 Z M 11.992188 76 " clip-rule="nonzero" />
    </clipPath>
  </defs>
  <g clip-path="url(#f8e1ed320a)">
    <path fill="#ffffff" d="M 122.65625 297.996094 C 61.175781 297.996094 11.992188 248.847656 11.992188 187.410156 C 11.992188 125.976562 61.175781 76.828125 122.65625 76.828125 L 252.324219 76.828125 C 313.808594 76.828125 362.992188 125.976562 362.992188 187.410156 C 362.992188 248.847656 313.808594 297.996094 252.324219 297.996094 Z M 248.972656 258.898438 C 289.214844 258.898438 320.515625 226.507812 320.515625 187.410156 C 320.515625 147.199219 288.097656 115.921875 248.972656 115.921875 L 126.011719 115.921875 C 85.769531 115.921875 54.46875 148.316406 54.46875 187.410156 C 54.46875 226.507812 86.886719 258.898438 126.011719 258.898438 Z M 248.972656 258.898438 " fill-opacity="1" fill-rule="nonzero" />
  </g>
</svg>
